<svg id="Capa_1" enable-background="new 0 0 512 512" height="512" viewBox="0 0 512 512" width="512" xmlns="http://www.w3.org/2000/svg"><g id="XMLID_492_"><g id="XMLID_59_"><path id="XMLID_57_" d="m457.039 183.428c-24.272-4.286-47.247 12.149-51.118 36.388l-10.501 65.763c-2.075 12.991-13.13 22.421-26.287 22.421-16.669 0-29.654-14.46-27.867-31.033l13.092-121.435c6.306-58.494-39.525-109.532-98.358-109.532-58.833 0-104.664 51.038-98.358 109.532l5.387 49.968c1.406 13.045-8.815 24.428-21.936 24.428-12.06 0-22.194-8.644-24.095-20.553l-9.626-60.282c-3.471-21.733-23.696-36.621-45.4-33.586-22.403 3.133-37.698 24.753-34.131 47.092l9.501 59.496c3.938 24.658 16.569 47.163 35.568 63.369 18.999 16.205 43.214 25.13 68.185 25.13h33.266l18.693 173.406h125.891l9.487-88h40.701c27.241 0 53.658-9.736 74.384-27.415s34.505-42.23 38.801-69.13l10.388-65.049c3.806-23.831-11.901-46.783-35.667-50.978z" fill="#d5ea79"/><g fill="#ffe6b4"><path id="XMLID_56_" d="m24.312 54.369c16.214 0 30.641 7.539 40 19.298 9.359-11.758 23.786-19.298 40-19.298v26.855c0 18.706-15.164 33.87-33.87 33.87h-12.26c-18.706 0-33.87-15.164-33.87-33.87z"/><path id="XMLID_14_" d="m487.688 121.994c-16.214 0-30.641 7.539-40 19.298-9.359-11.758-23.786-19.298-40-19.298v26.855c0 18.706 15.164 33.87 33.87 33.87h12.26c18.706 0 33.87-15.164 33.87-33.87z"/></g></g><g id="XMLID_113_"><path id="XMLID_141_" d="m502 256.948h-2.766l3.348-20.965c3.331-20.861-5.664-41.044-21.515-52.791 10.117-8.044 16.621-20.444 16.621-34.343v-26.855c0-2.652-1.054-5.196-2.929-7.071-1.876-1.875-4.419-2.929-7.071-2.929-14.903 0-28.988 5.328-40 14.896-11.012-9.567-25.098-14.896-40-14.896-5.523 0-10 4.477-10 10v26.855c0 14.608 7.183 27.562 18.196 35.539-10.67 8.412-17.679 20.334-19.837 33.85l-10.501 65.763c-1.296 8.112-8.198 13.999-16.413 13.999-5.186 0-9.95-2.125-13.415-5.983-3.464-3.858-5.066-8.822-4.51-13.978l9.198-85.32h6.022c5.523 0 10-4.477 10-10s-4.477-10-10-10h-3.866l1.737-16.115c2.576-23.896-2.875-47.842-15.146-68.117l7.443-5.729c4.377-3.368 5.194-9.647 1.825-14.023-3.368-4.376-9.647-5.194-14.023-1.825l-7.134 5.491c-.074-.083-.145-.168-.219-.251-18.388-20.48-43.86-33.164-71.045-35.679v-8.471c0-5.523-4.477-10-10-10s-10 4.477-10 10v8.471c-27.185 2.515-52.657 15.199-71.046 35.678-.074.083-.145.168-.219.251l-7.134-5.491c-4.377-3.37-10.655-2.551-14.023 1.825-3.369 4.376-2.552 10.655 1.825 14.023l7.443 5.729c-12.271 20.275-17.722 44.22-15.146 68.117l5.387 49.968c.372 3.45-.7 6.771-3.018 9.352-2.318 2.582-5.506 4.003-8.976 4.003-7.118 0-13.098-5.102-14.22-12.13l-9.626-60.282c-2.059-12.894-8.906-24.283-19.291-32.156 9.966-8.049 16.357-20.357 16.357-34.135v-26.854c0-5.523-4.477-10-10-10-14.903 0-28.988 5.328-40 14.896-11.012-9.567-25.097-14.896-40-14.896-5.523 0-10 4.477-10 10v26.855c0 15.357 7.938 28.888 19.921 36.728-2.471 2.243-4.745 4.752-6.784 7.511-4.646 6.282-7.764 13.544-9.201 21.121h-8.249c-5.523 0-10 4.477-10 10s4.477 10 10 10h8.35l9.116 57.087c.965 6.045 2.434 11.963 4.325 17.721l-6.341 3.548c-4.819 2.697-6.54 8.791-3.843 13.61 1.833 3.274 5.233 5.118 8.736 5.118 1.653 0 3.33-.411 4.874-1.275l4.494-2.515c6.721 12.535 15.732 23.831 26.708 33.193 3.647 3.111 7.473 5.971 11.445 8.582l-6.684 10.724c-2.921 4.687-1.49 10.855 3.197 13.776 1.646 1.026 3.474 1.515 5.28 1.515 3.337 0 6.6-1.671 8.496-4.712l7.351-11.794c14.295 6.168 29.803 9.431 45.589 9.431h24.286l3.561 33.033c.592 5.491 5.53 9.458 11.014 8.871 5.491-.592 9.462-5.523 8.871-11.014l-4.524-41.961c-.547-5.079-4.834-8.928-9.942-8.928h-33.266c-22.594 0-44.504-8.075-61.695-22.738-17.19-14.664-28.62-35.027-32.183-57.338l-9.5-59.496c-1.319-8.26.8-16.886 5.814-23.667 4.878-6.596 11.919-10.838 19.827-11.944 16.243-2.275 31.554 9.061 34.14 25.259l9.626 60.282c2.681 16.79 16.967 28.977 33.97 28.977 9.088 0 17.784-3.878 23.856-10.641 6.073-6.762 8.997-15.823 8.023-24.859l-5.387-49.968c-2.702-25.062 5.408-50.193 22.25-68.948 16.842-18.756 40.958-29.513 66.166-29.513 25.207 0 49.324 10.757 66.165 29.512 16.842 18.755 24.952 43.886 22.25 68.948l-13.092 121.434c-1.156 10.717 2.312 21.464 9.514 29.485 7.203 8.021 17.516 12.621 28.296 12.621 18.1 0 33.308-12.972 36.161-30.845l10.501-65.762c1.449-9.073 6.369-17.005 13.853-22.335 7.482-5.328 16.59-7.381 25.652-5.782 18.152 3.205 30.502 20.949 27.531 39.554l-10.388 65.049c-3.921 24.554-16.498 46.962-35.416 63.099-18.917 16.135-43.029 25.022-67.894 25.022h-40.7c-5.108 0-9.395 3.85-9.942 8.928l-8.526 79.072h-107.93l-3.562-33.033c-.592-5.491-5.525-9.46-11.014-8.871-5.491.592-9.462 5.523-8.871 11.014l3.33 30.89h-117.918c-5.523 0-10 4.477-10 10s4.477 10 10 10h384c5.523 0 10-4.477 10-10s-4.477-10-10-10h-117.919l7.332-68h31.72c2.944 0 5.879-.109 8.801-.316l6.003 12.876c1.696 3.639 5.303 5.777 9.07 5.777 1.415 0 2.853-.302 4.219-.939 5.005-2.333 7.171-8.283 4.838-13.289l-3.557-7.63c17.975-4.364 34.882-12.696 49.377-24.513l11.422 9.418c1.863 1.537 4.116 2.285 6.356 2.285 2.883 0 5.744-1.241 7.721-3.639 3.514-4.261 2.908-10.564-1.354-14.077l-9.625-7.936c15.628-17.648 26.039-39.49 29.79-62.983l3.846-24.083h5.96c5.523 0 10-4.477 10-10 0-5.526-4.477-10.003-10-10.003zm-467.688-191.358c8.674 2.16 16.453 7.115 22.176 14.304 1.897 2.384 4.778 3.772 7.824 3.772s5.927-1.389 7.824-3.772c5.723-7.189 13.502-12.145 22.176-14.304v15.634c0 13.162-10.708 23.87-23.87 23.87h-12.26c-13.162 0-23.87-10.708-23.87-23.87zm383.376 67.625c8.674 2.16 16.454 7.115 22.177 14.305 1.897 2.383 4.777 3.772 7.824 3.772 3.046 0 5.927-1.389 7.824-3.773 5.723-7.189 13.502-12.145 22.176-14.304v15.634c0 13.162-10.708 23.87-23.87 23.87h-12.26c-13.162 0-23.87-10.708-23.87-23.87v-15.634z"/><path id="XMLID_415_" d="m237 176.036v-8.74c0-5.523-4.477-10-10-10s-10 4.477-10 10v8.74c0 5.523 4.477 10 10 10s10-4.477 10-10z"/><path id="XMLID_499_" d="m266 424.313v-8.739c0-5.523-4.477-10-10-10s-10 4.477-10 10v8.739c0 5.523 4.477 10 10 10s10-4.477 10-10z"/><path id="XMLID_502_" d="m285 123.967c5.523 0 10-4.477 10-10v-8.739c0-5.523-4.477-10-10-10s-10 4.477-10 10v8.739c0 5.523 4.477 10 10 10z"/><path id="XMLID_503_" d="m275 238.105c0 5.523 4.477 10 10 10s10-4.477 10-10v-8.74c0-5.523-4.477-10-10-10s-10 4.477-10 10z"/><path id="XMLID_580_" d="m275 353.504c0 5.523 4.477 10 10 10s10-4.477 10-10v-8.74c0-5.523-4.477-10-10-10s-10 4.477-10 10z"/><path id="XMLID_581_" d="m210.333 291.435v8.74c0 5.523 4.477 10 10 10s10-4.477 10-10v-8.74c0-5.523-4.477-10-10-10s-10 4.477-10 10z"/><path id="XMLID_582_" d="m190.78 404.37c1.86-1.86 2.93-4.44 2.93-7.07 0-2.64-1.07-5.21-2.93-7.08-1.86-1.86-4.44-2.92-7.07-2.92-2.64 0-5.21 1.06-7.07 2.92-1.87 1.86-2.93 4.44-2.93 7.08 0 2.63 1.06 5.21 2.93 7.07 1.86 1.86 4.43 2.93 7.07 2.93 2.63 0 5.21-1.07 7.07-2.93z"/></g></g></svg>