<svg id="Capa_1" enable-background="new 0 0 511.995 511.995" height="512" viewBox="0 0 511.995 511.995" width="512" xmlns="http://www.w3.org/2000/svg"><g id="XMLID_728_"><path id="XMLID_1023_" d="m427.694 181.817c-13.44-18.283-34.277-29.552-56.771-30.904 18.806-12.35 31.259-32.452 33.842-54.953l-.016-.007c-20.756-9.103-44.406-8.455-64.546 1.587 10.084-20.086 10.806-43.695 1.802-64.453l-.017.002c-22.576 2.5-42.772 14.934-55.187 33.769-1.271-22.492-12.456-43.36-30.673-56.864l-.014.01c-18.283 13.44-29.552 34.278-30.904 56.771-12.35-18.807-32.451-31.259-54.953-33.842l-.007.016c-9.114 20.782-8.454 44.464 1.623 64.621-20.09-10.093-43.707-10.819-64.472-1.811l.002.017c2.497 22.544 14.9 42.716 33.691 55.134-22.502 1.346-43.349 12.617-56.793 30.906l-.01.014c13.487 18.195 34.322 29.377 56.784 30.669-18.804 12.418-31.216 32.596-33.713 55.149l-.002.017c20.803 9.024 44.468 8.277 64.582-1.868-10.105 20.169-10.774 43.877-1.652 64.678l.007.016c22.479-2.581 42.564-15.011 54.917-33.787 1.373 22.464 12.637 43.268 30.898 56.692l.014.01c18.195-13.488 29.377-34.322 30.669-56.784 12.418 18.804 32.596 31.216 55.149 33.713l.017.002c9.013-20.776 8.28-44.408-1.829-64.506 20.164 10.094 43.862 10.76 64.656 1.64l.016-.007c-2.584-22.51-15.046-42.617-33.864-54.967 22.454-1.298 43.279-12.479 56.763-30.668z" fill="#ffcd69"/><circle id="XMLID_1062_" cx="255.997" cy="181.702" fill="#d1a184" r="76"/><path id="XMLID_41_" d="m345.739 383.472c-49.493 0-89.614 40.122-89.614 89.615 0 6.899.78 13.616 2.256 20.068l-.009.021c10.632 5.631 22.756 8.82 35.625 8.82 32.78 0 60.746-20.684 71.511-49.718 7.251-19.896 22.574-35.914 41.987-44.125l.002-.001c-16.074-15.294-37.82-24.68-61.758-24.68z" fill="#d5ea79"/><path id="XMLID_37_" d="m166.51 383.472c49.493 0 89.615 40.122 89.615 89.615 0 6.899-.78 13.616-2.256 20.068l.009.021c-10.632 5.631-22.756 8.82-35.625 8.82-32.779 0-60.746-20.684-71.511-49.718-7.251-19.896-22.574-35.914-41.987-44.125l-.003-.001c16.073-15.294 37.819-24.68 61.758-24.68z" fill="#d5ea79"/><circle id="XMLID_1063_" cx="255.997" cy="181.702" fill="#c68a65" r="36"/><g id="XMLID_289_"><path id="XMLID_292_" d="m435.698 175.822c-10.796-14.655-25.717-25.314-42.624-30.814 11.915-13.176 19.551-29.839 21.625-47.906.501-4.36-1.915-8.543-5.934-10.305-16.682-7.316-34.948-9.102-52.354-5.419 3.722-17.361 2-35.597-5.232-52.269-1.746-4.026-5.944-6.44-10.292-5.958-18.139 2.009-34.873 9.614-48.114 21.538-5.448-16.927-16.064-31.885-30.69-42.727-3.525-2.613-8.356-2.613-11.891-.013-14.692 10.8-25.378 25.743-30.887 42.677-13.179-11.918-29.84-19.552-47.908-21.626-4.371-.504-8.552 1.924-10.309 5.944-7.323 16.702-9.103 34.986-5.403 52.408-17.359-3.72-35.595-1.998-52.263 5.234-3.942 1.71-6.35 5.764-5.982 10.045.007.083.015.165.024.247 2.008 18.129 9.612 34.863 21.531 48.104-16.961 5.498-31.921 16.181-42.704 30.85-2.654 3.539-2.668 8.401-.034 11.955 10.83 14.609 25.774 25.222 42.681 30.676-11.911 13.236-19.507 29.958-21.514 48.07-.499 4.373 1.918 8.558 5.956 10.309 16.703 7.246 34.966 8.961 52.349 5.215-3.706 17.43-1.925 35.727 5.407 52.445 1.76 4.023 5.933 6.434 10.302 5.926 18.053-2.072 34.708-9.7 47.881-21.602 4.976 15.274 14.17 28.908 26.679 39.33v54.963c-18.201-24.065-47.057-39.646-79.487-39.646-25.675 0-50.056 9.743-68.651 27.434-2.263 2.153-3.389 5.24-3.046 8.344s2.118 5.871 4.796 7.478c.401.241.819.453 1.25.635 16.916 7.155 30.215 21.128 36.506 38.391 12.474 33.64 44.98 56.242 80.888 56.242 13.122 0 26.155-3.018 37.872-8.746 11.716 5.728 24.75 8.746 37.872 8.746 35.907 0 68.414-22.602 80.906-56.294 6.273-17.21 19.572-31.185 36.487-38.339.195-.082.391-.172.579-.267 2.915-1.457 4.936-4.243 5.418-7.466.482-3.222-.636-6.478-2.997-8.724-18.595-17.691-42.976-27.434-68.651-27.434-32.579 0-61.555 15.722-79.741 39.976v-55.108c12.59-10.505 21.808-24.227 26.76-39.581 13.239 11.911 29.968 19.509 48.102 21.518 4.357.478 8.531-1.932 10.278-5.96 7.235-16.678 8.955-34.919 5.229-52.284 17.431 3.706 35.729 1.926 52.447-5.407 4.023-1.76 6.428-5.939 5.927-10.302-2.073-18.061-9.701-34.714-21.608-47.888 16.878-5.461 31.793-16.064 42.607-30.651 2.638-3.563 2.613-8.433-.043-11.964zm-279.561 273.031c-6.325-17.355-18.132-32.18-33.362-42.309 12.893-8.499 28.011-13.071 43.736-13.071 38.345 0 70.442 27.251 77.951 63.402-10.457-13.337-24.21-24.003-40.248-30.84-5.08-2.165-10.955.196-13.121 5.278-2.166 5.081.197 10.955 5.278 13.121 19.863 8.467 35.373 24.23 43.523 43.915-6.929 2.387-14.261 3.647-21.641 3.647-27.586-.001-52.556-17.36-62.116-43.143zm189.602-55.381c15.725 0 30.842 4.572 43.735 13.071-15.229 10.127-27.032 24.942-33.343 42.257-9.58 25.836-34.55 43.195-62.135 43.195-7.38 0-14.712-1.26-21.641-3.647 8.15-19.684 23.66-35.447 43.524-43.914 5.08-2.166 7.443-8.04 5.277-13.121-2.166-5.08-8.039-7.442-13.121-5.278-16.038 6.837-29.791 17.503-40.247 30.84 7.508-36.152 39.605-63.403 77.951-63.403zm24.625-190.956c-4.307.249-7.968 3.231-9.083 7.398s.567 8.579 4.174 10.946c14.282 9.372 24.246 23.724 28.093 40.139-16.159 4.957-33.619 3.56-48.936-4.108-3.854-1.93-8.51-1.172-11.555 1.877-3.044 3.05-3.792 7.708-1.855 11.558 7.671 15.251 9.118 32.654 4.247 48.783-16.462-3.784-30.875-13.713-40.307-27.996-2.374-3.596-6.782-5.265-10.945-4.145-4.16 1.12-7.136 4.779-7.383 9.081-.982 17.044-8.43 32.842-20.713 44.375-12.346-11.491-19.86-27.272-20.903-44.329-.263-4.297-3.247-7.944-7.406-9.052-.855-.228-1.72-.338-2.575-.338-3.308 0-6.474 1.646-8.354 4.504-9.372 14.244-23.71 24.184-40.096 28.025-4.96-16.168-3.559-33.635 4.118-48.957 1.931-3.855 1.174-8.515-1.879-11.56s-7.715-3.79-11.565-1.848c-15.269 7.702-32.695 9.163-48.849 4.282 3.784-16.462 13.713-30.875 27.995-40.306 3.596-2.375 5.266-6.785 4.146-10.945s-4.78-7.135-9.081-7.383c-17.044-.981-32.842-8.429-44.375-20.714 11.512-12.369 27.326-19.887 44.417-20.91 4.296-.257 7.946-3.234 9.061-7.391 1.116-4.157-.554-8.561-4.145-10.934-14.271-9.432-24.194-23.839-27.977-40.293 16.118-4.869 33.51-3.426 48.753 4.231 3.849 1.934 8.504 1.185 11.553-1.858s3.806-7.696 1.88-11.549c-7.654-15.309-9.047-32.757-4.093-48.907 16.406 3.846 30.755 13.803 40.126 28.073 2.366 3.602 6.776 5.282 10.934 4.173 4.164-1.11 7.148-4.762 7.406-9.062 1.027-17.084 8.544-32.89 20.909-44.398 12.302 11.549 19.751 27.372 20.716 44.445.244 4.305 3.22 7.97 7.384 9.091s8.577-.553 10.95-4.153c9.428-14.304 23.849-24.25 40.339-28.042 4.866 16.112 3.427 33.497-4.223 48.735-1.932 3.848-1.185 8.5 1.855 11.548s7.691 3.808 11.543 1.888c15.29-7.622 32.707-9.006 48.842-4.06-3.846 16.406-13.803 30.753-28.073 40.124-3.602 2.365-5.283 6.771-4.174 10.935 1.11 4.163 4.762 7.148 9.064 7.406 17.084 1.027 32.89 8.544 44.397 20.908-11.529 12.281-27.319 19.728-44.357 20.713z"/><path id="XMLID_495_" d="m209.997 181.702c0 25.364 20.636 46 46 46s46-20.636 46-46-20.636-46-46-46-46 20.635-46 46zm72 0c0 14.337-11.663 26-26 26-14.336 0-26-11.663-26-26 0-14.336 11.664-26 26-26 14.337 0 26 11.663 26 26z"/><path id="XMLID_497_" d="m328.939 158.081c-5.433.997-9.028 6.209-8.031 11.641 3.924 21.378-2.896 43.304-18.241 58.649-25.732 25.734-67.604 25.733-93.338.001-25.733-25.734-25.733-67.605 0-93.338 15.409-15.41 37.42-22.215 58.873-18.2 5.43 1.013 10.653-2.562 11.668-7.991 1.016-5.429-2.561-10.653-7.99-11.669-27.952-5.229-56.615 3.639-76.693 23.717-33.531 33.531-33.531 88.091.001 121.623 16.766 16.766 38.789 25.148 60.811 25.148 22.023 0 44.046-8.383 60.812-25.148 19.994-19.995 28.88-48.556 23.771-76.401-1-5.434-6.221-9.029-11.643-8.032z"/><path id="XMLID_584_" d="m309.827 138.055c2.63 0 5.21-1.07 7.069-2.93 1.86-1.86 2.931-4.44 2.931-7.07 0-2.64-1.07-5.21-2.931-7.07-1.859-1.87-4.439-2.93-7.069-2.93s-5.21 1.06-7.07 2.93c-1.86 1.86-2.93 4.43-2.93 7.07 0 2.63 1.069 5.21 2.93 7.07 1.86 1.86 4.441 2.93 7.07 2.93z"/></g></g></svg>