<svg id="Capa_1" enable-background="new 0 0 512.002 512.002" height="512" viewBox="0 0 512.002 512.002" width="512" xmlns="http://www.w3.org/2000/svg"><g id="XMLID_85_"><g id="XMLID_91_"><path id="XMLID_90_" d="m184.084 229.042c-39.771-39.77-104.479-39.769-144.25 0-39.769 39.77-39.769 104.48 0 144.25h.001c19.885 19.885 46.004 29.827 72.124 29.827s52.24-9.942 72.126-29.827c39.768-39.77 39.768-104.48-.001-144.25zm-30.421 113.829c-11.498 11.498-26.601 17.247-41.704 17.247s-30.206-5.749-41.703-17.247c-22.995-22.996-22.995-60.412 0-83.407 22.996-22.995 60.411-22.996 83.407 0 22.995 22.995 22.995 60.411 0 83.407z" fill="#99ebfa"/></g><g id="XMLID_2153_"><path d="m399.258 368.042 68.056-100.041h28.051c5.907 0 8.865-7.141 4.688-11.318l-55.513-55.513c-4.177-4.177-11.318-1.219-11.318 4.688v29.319l-48.316 48.316" fill="#fff"/></g><g id="XMLID_2608_"><path id="XMLID_86_" d="m399.258 368.042 68.056-100.041h28.051c5.907 0 8.865-7.141 4.688-11.318l-55.513-55.513c-4.177-4.177-11.318-1.219-11.318 4.688v29.319l-48.316 48.316z" fill="#99ebfa"/></g><g id="XMLID_54_"><path id="XMLID_438_" d="m389.586 502h-240.25c-19.639 0-34.644-17.526-31.618-36.93l47.884-307.07h207.718l47.883 307.07c3.027 19.404-11.979 36.93-31.617 36.93z" fill="#ccf5fc"/></g><g id="XMLID_591_"><g id="XMLID_587_"><path id="XMLID_433_" d="m206.427 233.696c-18.524 8.58-40.272-1.893-45.114-21.726-18.258-9.133-23.629-32.667-11.142-48.817-4.243-19.969 10.807-38.841 31.22-39.148 12.967-15.768 37.105-15.768 50.072 0 20.412.307 35.463 19.179 31.22 39.148 12.487 16.15 7.116 39.684-11.142 48.817-4.842 19.833-26.59 30.306-45.114 21.726z" fill="#c193dc"/></g><g id="XMLID_660_"><path id="XMLID_425_" d="m332.495 233.696c-18.524 8.58-40.272-1.893-45.114-21.726-18.258-9.133-23.629-32.667-11.142-48.817-4.243-19.969 10.807-38.841 31.22-39.148 12.967-15.768 37.106-15.768 50.073 0 20.413.307 35.463 19.179 31.22 39.148 12.487 16.15 7.116 39.684-11.142 48.817-4.843 19.833-26.591 30.306-45.115 21.726z" fill="#ffcd69"/></g></g><g id="XMLID_664_"><path id="XMLID_420_" d="m269.461 13.02c18.524-8.58 40.272 1.893 45.114 21.726 18.258 9.133 23.629 32.667 11.142 48.817 4.243 19.969-10.807 38.841-31.22 39.148-12.967 15.768-37.105 15.768-50.072 0-20.412-.307-35.463-19.179-31.22-39.148-12.487-16.15-7.116-39.684 11.142-48.817 4.842-19.833 26.59-30.306 45.114-21.726z" fill="#ff7d97"/></g><g id="XMLID_747_"><path id="XMLID_402_" d="m269.461 286.03 15.238-15.238c15.93-15.93 15.93-41.757 0-57.686l-15.238-15.238-15.238 15.238c-15.93 15.93-15.93 41.757 0 57.686z" fill="#d5ea79"/></g><g id="XMLID_440_"><path id="XMLID_443_" d="m507.124 249.612-55.513-55.512c-4.773-4.774-11.888-6.188-18.123-3.606-6.236 2.583-10.267 8.614-10.267 15.364v25.177l-24.562 24.561-6.503-41.705c6.081-5.704 10.397-13.127 12.302-21.472 2.495-10.931.589-22.237-5.22-31.659 1.146-11.009-2.043-22.022-9.033-30.788-6.991-8.766-17.018-14.325-28.007-15.659-7.368-7.243-17.094-11.533-27.475-12.072 1.539-5.24 2.056-10.762 1.481-16.284 5.809-9.423 7.715-20.729 5.22-31.66s-9.117-20.29-18.44-26.259c-3.745-10.416-11.396-18.956-21.498-23.82-10.101-4.865-21.547-5.523-32.026-1.956-10.478-3.568-21.925-2.909-32.026 1.956-10.103 4.865-17.753 13.404-21.498 23.82-9.321 5.968-15.943 15.327-18.438 26.258s-.59 22.237 5.219 31.66c-.575 5.522-.058 11.045 1.481 16.284-10.381.539-20.107 4.829-27.476 12.072-10.987 1.334-21.015 6.892-28.005 15.658-6.991 8.766-10.18 19.779-9.034 30.789-5.642 9.152-7.589 20.08-5.411 30.716-19.745-3.972-40.479-2.653-59.704 4.125-5.209 1.836-7.942 7.548-6.105 12.756 1.836 5.209 7.551 7.942 12.756 6.106 21.17-7.464 44.559-6.888 65.236 1.423l-3.671 23.541c-25.947-12.864-58.38-8.322-79.635 12.931-26.912 26.914-26.912 70.706 0 97.621 13.238 13.237 30.797 20.245 48.728 20.244 3.543 0 7.101-.285 10.643-.839l-3.66 23.473c-2.298.171-4.603.264-6.899.264-24.604 0-47.708-9.553-65.054-26.898-24.891-24.893-33.39-62.493-21.651-95.791 1.836-5.209-.898-10.92-6.107-12.756-5.207-1.836-10.919.898-12.756 6.107-6.928 19.654-8.252 40.833-3.83 61.248 4.546 20.986 14.99 40.12 30.203 55.334 21.123 21.123 49.249 32.756 79.195 32.756 1.249 0 2.5-.032 3.751-.074l-7.872 50.484c-1.893 12.139 1.604 24.453 9.594 33.786s19.618 14.685 31.904 14.685h240.25c12.285 0 23.914-5.352 31.904-14.685 7.99-9.332 11.487-21.647 9.595-33.786l-15.793-101.277 57.314-84.251h22.759c6.75 0 12.781-4.03 15.364-10.266 2.58-6.237 1.165-13.35-3.607-18.124zm-157.317-119.255c1.866 2.27 4.636 3.603 7.573 3.647 6.729.101 12.993 3.176 17.189 8.437 4.194 5.26 5.799 12.052 4.4 18.634-.611 2.874.073 5.871 1.87 8.195 4.116 5.323 5.617 12.138 4.12 18.698s-5.807 12.048-11.824 15.059c-2.628 1.314-4.544 3.718-5.241 6.572-1.596 6.537-5.988 11.96-12.05 14.879-6.064 2.919-13.043 2.971-19.146.144-2.666-1.235-5.74-1.235-8.406 0-6.104 2.828-13.083 2.775-19.146-.144-6.062-2.919-10.453-8.343-12.049-14.879-.696-2.854-2.613-5.258-5.241-6.572-6.018-3.011-10.328-8.5-11.825-15.06s.005-13.375 4.12-18.697c1.797-2.324 2.481-5.321 1.87-8.195-1.398-6.581.206-13.373 4.401-18.634s10.46-8.336 17.188-8.437c2.938-.044 5.707-1.378 7.573-3.647 4.273-5.197 10.584-8.177 17.312-8.177s13.039 2.98 17.312 8.177zm-88.512 89.82 8.166-8.167 8.167 8.167c5.815 5.815 9.019 13.547 9.019 21.772 0 8.224-3.203 15.956-9.019 21.771l-8.167 8.167-8.166-8.167c-5.815-5.815-9.018-13.547-9.018-21.771-.001-8.224 3.202-15.956 9.018-21.772zm-44.298-161.43c1.497-6.56 5.807-12.048 11.824-15.058 2.628-1.314 4.545-3.718 5.241-6.572 1.596-6.536 5.987-11.959 12.05-14.879 3.083-1.485 6.402-2.227 9.725-2.227 3.209 0 6.421.694 9.421 2.083 2.665 1.235 5.739 1.236 8.406 0 6.105-2.827 13.085-2.775 19.146.144 6.062 2.92 10.455 8.343 12.051 14.88.697 2.854 2.613 5.258 5.241 6.572 6.018 3.01 10.327 8.499 11.824 15.059 1.497 6.559-.004 13.375-4.12 18.698-1.797 2.324-2.482 5.321-1.87 8.195 1.398 6.582-.206 13.373-4.4 18.634-4.195 5.261-10.46 8.336-17.188 8.437-2.938.045-5.707 1.378-7.573 3.647-4.273 5.197-10.584 8.177-17.312 8.177-6.729 0-13.039-2.98-17.313-8.177-1.866-2.27-4.636-3.603-7.573-3.647-6.728-.101-12.992-3.176-17.188-8.438-4.195-5.26-5.8-12.052-4.401-18.633.611-2.874-.073-5.871-1.87-8.195-4.117-5.324-5.619-12.14-4.121-18.7zm-58.915 110.523c1.797-2.324 2.481-5.321 1.87-8.195-1.397-6.582.206-13.374 4.401-18.635 4.195-5.26 10.46-8.335 17.188-8.437 2.938-.044 5.707-1.378 7.573-3.647 4.273-5.197 10.584-8.177 17.312-8.177 6.729 0 13.039 2.98 17.314 8.178 1.866 2.269 4.636 3.603 7.573 3.647 6.728.101 12.992 3.176 17.187 8.437 4.196 5.261 5.8 12.053 4.402 18.635-.611 2.874.073 5.871 1.87 8.195 4.115 5.323 5.617 12.138 4.119 18.698-1.497 6.56-5.807 12.048-11.824 15.059-2.628 1.314-4.544 3.718-5.241 6.572-1.596 6.537-5.988 11.96-12.05 14.879s-13.043 2.971-19.146.144c-2.666-1.235-5.74-1.235-8.406 0-6.105 2.828-13.084 2.775-19.145-.144-6.062-2.919-10.455-8.343-12.051-14.879-.697-2.854-2.613-5.257-5.241-6.572-6.018-3.01-10.327-8.499-11.824-15.059-1.498-6.56.004-13.376 4.119-18.699zm-80.79 166.566c-19.116-19.116-19.116-50.221-.001-69.336 16.681-16.681 43.051-18.868 62.19-5.897l-13.658 87.588c-17.14 5.06-35.699.476-48.531-12.355zm329.006 148.473c-4.185 4.888-10.276 7.692-16.712 7.692h-240.25c-6.436 0-12.526-2.804-16.712-7.692-4.185-4.888-6.017-11.338-5.024-17.697l36.095-231.475c3.131 2.949 6.725 5.445 10.707 7.362 5.833 2.81 12.115 4.215 18.399 4.215 4.599 0 9.199-.752 13.626-2.26 8.422 2.868 17.468 2.999 25.94.417.703 12.468 5.885 24.092 14.786 32.992l15.237 15.238c1.875 1.875 4.419 2.929 7.071 2.929s5.195-1.054 7.071-2.929l15.238-15.238c8.903-8.903 14.085-20.53 14.787-33.001 4.018 1.225 8.163 1.851 12.312 1.851 4.598 0 9.199-.753 13.626-2.26 10.478 3.567 21.926 2.91 32.027-1.956 3.982-1.917 7.574-4.413 10.705-7.362l36.096 231.474c.991 6.36-.84 12.811-5.025 17.7zm61.015-226.308c-3.311 0-6.406 1.638-8.269 4.376l-48.264 70.948-8.305-53.259 37.817-37.817c1.875-1.875 2.929-4.419 2.929-7.071v-21.183l44.007 44.006z"/><path id="XMLID_1485_" d="m206.427 187.4c2.63 0 5.21-1.06 7.07-2.92 1.859-1.87 2.93-4.44 2.93-7.07 0-2.64-1.07-5.21-2.93-7.08-1.86-1.86-4.44-2.92-7.07-2.92s-5.21 1.06-7.07 2.92c-1.859 1.86-2.93 4.44-2.93 7.08 0 2.63 1.07 5.2 2.93 7.07 1.861 1.86 4.441 2.92 7.07 2.92z"/><path id="XMLID_1486_" d="m322.498 177.41c0 2.63 1.069 5.21 2.93 7.07 1.86 1.86 4.43 2.92 7.07 2.92 2.63 0 5.21-1.06 7.069-2.92 1.86-1.86 2.931-4.44 2.931-7.07s-1.07-5.21-2.931-7.08c-1.859-1.86-4.439-2.92-7.069-2.92-2.641 0-5.21 1.06-7.07 2.92-1.861 1.87-2.93 4.44-2.93 7.08z"/><path id="XMLID_1487_" d="m269.458 79.311c2.64 0 5.21-1.07 7.069-2.93 1.87-1.86 2.931-4.44 2.931-7.07s-1.061-5.21-2.931-7.07c-1.859-1.86-4.439-2.93-7.069-2.93-2.631 0-5.21 1.07-7.07 2.93s-2.93 4.44-2.93 7.07 1.069 5.21 2.93 7.07c1.86 1.859 4.439 2.93 7.07 2.93z"/><path id="XMLID_1488_" d="m39.838 239.04c2.63 0 5.21-1.07 7.069-2.93 1.86-1.86 2.931-4.44 2.931-7.07s-1.07-5.21-2.931-7.07c-1.859-1.86-4.439-2.93-7.069-2.93-2.641 0-5.21 1.07-7.07 2.93-1.87 1.86-2.941 4.44-2.941 7.07s1.07 5.21 2.941 7.07c1.86 1.86 4.429 2.93 7.07 2.93z"/></g></g></svg>